<svg version="1.1" xmlns="http://www.w3.org/2000/svg" xmlns:xlink="http://www.w3.org/1999/xlink" preserveAspectRatio="xMidYMid meet" viewBox="136.1 90.43 367.8 331.13"><defs><path d="M157.88 90.94C146.14 90.94 136.6 100.48 136.6 112.22C136.6 135.84 136.6 324.81 136.6 348.43C136.6 360.17 146.14 369.71 157.88 369.71C164.51 369.71 197.7 369.71 257.42 369.71C257.42 373.23 257.42 375.18 257.42 375.57C257.42 377.41 255.88 378.88 254.05 378.88C237.77 378.88 224.41 392.23 224.41 408.51C224.41 409.03 224.41 413.2 224.41 413.72C224.41 417.76 227.72 421.06 231.75 421.06C249.39 421.06 390.53 421.06 408.18 421.06C412.21 421.06 415.51 417.76 415.51 413.72C415.51 413.2 415.51 409.03 415.51 408.51C415.51 392.23 402.23 378.88 385.88 378.88C384.04 378.88 382.57 377.41 382.57 375.57C382.57 375.18 382.57 373.23 382.57 369.71C442.3 369.71 475.49 369.71 482.12 369.71C493.86 369.71 503.4 360.17 503.4 348.43C503.4 324.81 503.4 135.84 503.4 112.22C503.4 100.48 493.86 90.94 482.12 90.94C417.27 90.94 190.3 90.94 157.88 90.94ZM151.28 307.35C151.28 190.27 151.28 125.23 151.28 112.22C151.28 108.55 154.21 105.62 157.88 105.62C190.3 105.62 449.7 105.62 482.12 105.62C485.72 105.62 488.72 108.55 488.72 112.22C488.72 125.23 488.72 190.27 488.72 307.35L151.28 307.35Z" id="h1Rnp9Xj8j"/><path d="M392.26 202.59C391.74 195.41 390.13 188.36 387.49 181.61C388.6 180.46 397.52 171.18 398.64 170.02C401.21 167.38 401.43 163.27 399.08 160.41C397.58 158.52 385.54 143.38 384.04 141.49C381.77 138.63 377.66 137.89 374.5 139.8C373.13 140.63 362.16 147.26 360.79 148.09C354.77 144.05 348.32 140.9 341.42 138.78C341.21 137.19 339.5 124.45 339.29 122.85C338.85 119.19 335.77 116.48 332.03 116.48C329.62 116.48 310.31 116.48 307.89 116.48C304.23 116.48 301.07 119.19 300.63 122.85C300.43 124.45 298.78 137.19 298.58 138.78C291.61 140.9 285.15 144.05 279.21 148.09C277.83 147.26 266.8 140.63 265.42 139.8C262.27 137.89 258.23 138.63 255.88 141.49C254.38 143.38 242.35 158.52 240.84 160.41C238.57 163.27 238.72 167.38 241.28 170.02C242.41 171.18 251.39 180.46 252.51 181.61C249.87 188.36 248.25 195.41 247.67 202.59C246.16 203.14 234.13 207.55 232.63 208.1C229.18 209.42 227.2 213.01 228.01 216.61C228.54 218.96 232.83 237.8 233.36 240.15C234.24 243.75 237.54 246.32 241.21 245.88C242.82 245.72 255.67 244.49 257.28 244.34C260.87 250.57 265.42 256.22 270.63 261.13C270.12 262.66 266.07 274.87 265.57 276.39C264.39 279.91 266.08 283.73 269.38 285.27C271.55 286.32 288.92 294.71 291.1 295.76C292.12 296.27 293.22 296.5 294.32 296.5C296.74 296.5 299.09 295.32 300.49 293.19C301.36 291.84 308.34 281.05 309.22 279.7C316.4 280.8 323.52 280.8 330.71 279.7C331.59 281.05 338.63 291.84 339.51 293.19C341.49 296.27 345.53 297.37 348.83 295.76C351.01 294.71 368.44 286.32 370.62 285.27C373.92 283.73 375.53 279.91 374.36 276.39C373.85 274.87 369.8 262.66 369.3 261.13C374.58 256.22 379.05 250.57 382.65 244.34C384.25 244.49 397.11 245.72 398.71 245.88C402.38 246.32 405.75 243.75 406.56 240.15C407.1 237.8 411.38 218.96 411.92 216.61C412.8 213.01 410.82 209.42 407.37 208.1C404.35 207 393.77 203.14 392.26 202.59ZM284.8 208.02C284.8 188.62 300.6 172.83 320 172.83C339.39 172.83 355.2 188.62 355.2 208.02C355.2 227.43 339.39 243.22 320 243.22C300.6 243.22 284.8 227.43 284.8 208.02Z" id="d1UYGS442w"/></defs><g><g><g><use xlink:href="#h1Rnp9Xj8j" opacity="1" fill="#ffffff" fill-opacity="1"/><g><use xlink:href="#h1Rnp9Xj8j" opacity="1" fill-opacity="0" stroke="#000000" stroke-width="1" stroke-opacity="0"/></g></g><g><use xlink:href="#d1UYGS442w" opacity="1" fill="#ffffff" fill-opacity="1"/><g><use xlink:href="#d1UYGS442w" opacity="1" fill-opacity="0" stroke="#000000" stroke-width="1" stroke-opacity="0"/></g></g></g></g></svg>